<svg width="10" height="10" viewBox="0 0 10 10" fill="none" xmlns="http://www.w3.org/2000/svg">
<path d="M9.47693 1.53873C9.38492 1.2894 9.23813 1.06372 9.04739 0.878479C8.86215 0.687744 8.63663 0.540955 8.38715 0.448944C8.18481 0.370361 7.88086 0.276825 7.32101 0.251343C6.71539 0.223724 6.53381 0.217773 5.00061 0.217773C3.46725 0.217773 3.28568 0.223572 2.68021 0.25119C2.12036 0.276825 1.81625 0.370361 1.61407 0.448944C1.36459 0.540955 1.13892 0.687744 0.953827 0.878479C0.763092 1.06372 0.616302 1.28925 0.524139 1.53873C0.445557 1.74106 0.35202 2.04517 0.326538 2.60501C0.29892 3.21048 0.292969 3.39206 0.292969 4.92542C0.292969 6.45862 0.29892 6.6402 0.326538 7.24582C0.35202 7.80567 0.445557 8.10962 0.524139 8.31195C0.616302 8.56143 0.762939 8.78696 0.953674 8.9722C1.13892 9.16294 1.36444 9.30972 1.61392 9.40174C1.81625 9.48047 2.12036 9.57401 2.68021 9.59949C3.28568 9.62711 3.4671 9.63291 5.00046 9.63291C6.53397 9.63291 6.71555 9.62711 7.32086 9.59949C7.88071 9.57401 8.18481 9.48047 8.38715 9.40174C8.88794 9.20856 9.28375 8.81275 9.47693 8.31195C9.55551 8.10962 9.64905 7.80567 9.67468 7.24582C9.7023 6.6402 9.7081 6.45862 9.7081 4.92542C9.7081 3.39206 9.7023 3.21048 9.67468 2.60501C9.6492 2.04517 9.55566 1.74106 9.47693 1.53873ZM5.00061 7.87387C3.37204 7.87387 2.05185 6.55383 2.05185 4.92526C2.05185 3.29669 3.37204 1.97665 5.00061 1.97665C6.62903 1.97665 7.94922 3.29669 7.94922 4.92526C7.94922 6.55383 6.62903 7.87387 5.00061 7.87387ZM8.0658 2.54916C7.68524 2.54916 7.37671 2.24063 7.37671 1.86008C7.37671 1.47952 7.68524 1.17099 8.0658 1.17099C8.44635 1.17099 8.75488 1.47952 8.75488 1.86008C8.75473 2.24063 8.44635 2.54916 8.0658 2.54916Z" fill="white"/>
</svg>
