<svg width="13" height="11" viewBox="0 0 13 11" fill="none" xmlns="http://www.w3.org/2000/svg">
<path d="M12.1271 2.11185C11.6986 2.30188 11.2376 2.4304 10.7542 2.4878C11.2478 2.19207 11.6266 1.72414 11.8054 1.16566C11.3435 1.43964 10.8317 1.6384 10.2875 1.74553C9.8515 1.28117 9.23027 0.990967 8.54237 0.990967C7.22255 0.990967 6.15212 2.06141 6.15212 3.38123C6.15212 3.56858 6.17333 3.75093 6.21433 3.92598C4.22782 3.82634 2.46646 2.8748 1.28746 1.42823C1.08175 1.78118 0.963741 2.19207 0.963741 2.63005C0.963741 3.45913 1.38603 4.19105 2.02705 4.61958C1.63542 4.60728 1.2666 4.4998 0.944489 4.32029C0.944311 4.33045 0.944311 4.34061 0.944311 4.35059C0.944311 5.50873 1.76858 6.47471 2.86183 6.69415C2.66147 6.74905 2.44988 6.77811 2.23222 6.77811C2.07785 6.77811 1.92829 6.76331 1.78248 6.7355C2.08659 7.68491 2.96914 8.37601 4.01534 8.39544C3.19713 9.03664 2.16663 9.41864 1.04645 9.41864C0.853934 9.41864 0.663199 9.40741 0.476562 9.38513C1.53381 10.0636 2.79053 10.4591 4.1403 10.4591C8.53685 10.4591 10.9412 6.81697 10.9412 3.65806C10.9412 3.55449 10.9389 3.45128 10.9342 3.34896C11.4016 3.01205 11.8068 2.59119 12.1271 2.11185Z" fill="#305F64"/>
</svg>
